HIERARCHY
ROOT joint_0
{
	OFFSET 0.000000 0.000000 0.000000
	CHANNELS 6 Xposition Yposition Zposition Zrotation Yrotation Xrotation 
	JOINT joint_1
	{
		OFFSET 4.520508 -1.939880 86.268921
		CHANNELS 3 Zrotation Yrotation Xrotation
		JOINT joint_2
		{
			OFFSET -4.459717 -0.438538 78.934082
			CHANNELS 3 Zrotation Yrotation Xrotation
			JOINT joint_3
			{
				OFFSET -5.197754 -0.781128 78.796997
				CHANNELS 3 Zrotation Yrotation Xrotation
				JOINT joint_4
				{
					OFFSET 2.952026 -3.710571 109.812988
					CHANNELS 3 Zrotation Yrotation Xrotation
					JOINT joint_5
					{
						OFFSET 24.716797 -5.488037 87.903931
						CHANNELS 3 Zrotation Yrotation Xrotation
						End Site
						{
							OFFSET 0.000000 0.000000 0.000000
						}
					}
				}
				JOINT joint_6
				{
					OFFSET -3.154419 -25.484680 60.934937
					CHANNELS 3 Zrotation Yrotation Xrotation
					JOINT joint_7
					{
						OFFSET -28.997192 -144.472229 -32.671997
						CHANNELS 3 Zrotation Yrotation Xrotation
						JOINT joint_8
						{
							OFFSET 19.867676 -18.614380 -249.897949
							CHANNELS 3 Zrotation Yrotation Xrotation
							JOINT joint_9
							{
								OFFSET 5.281982 -13.816650 -264.993042
								CHANNELS 3 Zrotation Yrotation Xrotation
								End Site
								{
									OFFSET 0.000000 0.000000 0.000000
								}
							}
						}
					}
				}
				JOINT joint_10
				{
					OFFSET 6.494995 21.336792 62.257935
					CHANNELS 3 Zrotation Yrotation Xrotation
					JOINT joint_11
					{
						OFFSET 31.106567 145.200745 -27.007935
						CHANNELS 3 Zrotation Yrotation Xrotation
						JOINT joint_12
						{
							OFFSET 29.119141 24.684326 -248.460083
							CHANNELS 3 Zrotation Yrotation Xrotation
							JOINT joint_13
							{
								OFFSET 21.220093 31.248413 -262.703979
								CHANNELS 3 Zrotation Yrotation Xrotation
								End Site
								{
									OFFSET 0.000000 0.000000 0.000000
								}
							}
						}
					}
				}
			}
		}
	}
	JOINT joint_14
	{
		OFFSET -15.458496 -88.861694 -109.593018
		CHANNELS 3 Zrotation Yrotation Xrotation
		JOINT joint_15
		{
			OFFSET -6.193359 6.837952 -506.710999
			CHANNELS 3 Zrotation Yrotation Xrotation
			JOINT joint_16
			{
				OFFSET -35.096680 13.289795 -435.677025
				CHANNELS 3 Zrotation Yrotation Xrotation
				JOINT joint_17
				{
					OFFSET 158.491211 -33.916565 -71.771002
					CHANNELS 3 Zrotation Yrotation Xrotation
					End Site
					{
						OFFSET 0.000000 0.000000 0.000000
					}
				}
			}
		}
	}
	JOINT joint_18
	{
		OFFSET 23.116943 86.574158 -110.082031
		CHANNELS 3 Zrotation Yrotation Xrotation
		JOINT joint_19
		{
			OFFSET -6.125854 -0.283569 -506.757019
			CHANNELS 3 Zrotation Yrotation Xrotation
			JOINT joint_20
			{
				OFFSET -63.240234 11.589966 -432.537994
				CHANNELS 3 Zrotation Yrotation Xrotation
				JOINT joint_21
				{
					OFFSET 156.074219 -41.487305 -73.077999
					CHANNELS 3 Zrotation Yrotation Xrotation
					End Site
					{
						OFFSET 0.000000 0.000000 0.000000
					}
				}
			}
		}
	}
}
MOTION
Frames: 9
Frame Time: 0.016667
-2258.074219 877.690430 1139.917969 12.768245 0.745212 0.603316 -0.308562 1.944419 0.371948 -0.321206 -0.387080 -0.075003 -0.304125 0.367054 0.082286 -0.243319 1.784265 1.249377 0.000000 0.000000 0.000000 4.716680 -0.987010 -1.382642 0.073861 -0.156379 -0.254654 0.091812 -2.460696 -2.225560 0.000000 0.000000 0.000000 -1.044673 -1.732530 -1.564062 -0.106070 -2.111552 1.013095 -0.605087 -2.482430 -2.749758 0.000000 0.000000 0.000000 -0.158059 -3.866250 -0.677552 -0.017736 3.736321 1.469063 0.051550 -0.843810 -0.157717 0.000000 0.000000 0.000000 1.564975 -1.294478 -1.867951 1.559392 0.223592 -0.561848 1.364229 0.854013 0.869016 0.000000 0.000000 0.000000 
-2258.376709 877.491577 1139.864014 12.784874 0.709771 0.593276 -0.323542 1.914853 0.367810 -0.336826 -0.383529 -0.073851 -0.319941 0.365505 0.081818 -0.254714 1.759654 1.284879 0.000000 0.000000 0.000000 4.731870 -0.966796 -1.356097 0.072243 -0.126615 -0.257776 0.090705 -2.436661 -2.222732 0.000000 0.000000 0.000000 -1.028333 -1.697341 -1.599378 -0.106046 -2.081490 0.987984 -0.605031 -2.481616 -2.751618 0.000000 0.000000 0.000000 -0.169193 -3.867349 -0.668108 -0.027722 3.780952 1.488468 0.043844 -0.845470 -0.161567 0.000000 0.000000 0.000000 1.562973 -1.277200 -1.851234 1.557459 0.227197 -0.560151 1.362645 0.846228 0.866196 0.000000 0.000000 0.000000 
-2258.656250 877.297546 1139.810059 12.797314 0.679778 0.583573 -0.338596 1.875205 0.357726 -0.352226 -0.377499 -0.071998 -0.335626 0.362179 0.081215 -0.269078 1.726104 1.328981 0.000000 0.000000 0.000000 4.750899 -0.947323 -1.328430 0.070983 -0.097357 -0.256998 0.089582 -2.411937 -2.219436 0.000000 0.000000 0.000000 -1.009862 -1.655726 -1.634193 -0.105630 -2.044833 0.961193 -0.602188 -2.475260 -2.734197 0.000000 0.000000 0.000000 -0.178729 -3.872429 -0.658218 -0.036012 3.823641 1.505968 0.037587 -0.847435 -0.164827 0.000000 0.000000 0.000000 1.562640 -1.260458 -1.833100 1.557219 0.222842 -0.562694 1.362268 0.841062 0.864640 0.000000 0.000000 0.000000 
-2258.922363 877.091003 1139.758057 12.807272 0.652055 0.572357 -0.352586 1.832984 0.338437 -0.365977 -0.372224 -0.068724 -0.349811 0.358928 0.079528 -0.289463 1.685185 1.392472 0.000000 0.000000 0.000000 4.768151 -0.929862 -1.296861 0.070032 -0.070409 -0.253098 0.088619 -2.388899 -2.214453 0.000000 0.000000 0.000000 -0.993218 -1.610882 -1.666106 -0.104023 -2.005519 0.942588 -0.598109 -2.465444 -2.709476 0.000000 0.000000 0.000000 -0.187340 -3.875289 -0.644389 -0.043584 3.856927 1.520394 0.031795 -0.843941 -0.166703 0.000000 0.000000 0.000000 1.562926 -1.246073 -1.810459 1.557622 0.219265 -0.568908 1.361966 0.837172 0.863460 0.000000 0.000000 0.000000 
-2259.174561 876.861023 1139.708984 12.814582 0.627210 0.560379 -0.366257 1.787127 0.305497 -0.378545 -0.366557 -0.063477 -0.363006 0.355112 0.076880 -0.316836 1.633551 1.477893 0.000000 0.000000 0.000000 4.782792 -0.915477 -1.260242 0.069597 -0.047123 -0.244629 0.087759 -2.366318 -2.207410 0.000000 0.000000 0.000000 -0.977456 -1.562216 -1.694800 -0.100439 -1.964391 0.939019 -0.593320 -2.451965 -2.682977 0.000000 0.000000 0.000000 -0.194947 -3.874513 -0.625609 -0.050473 3.876087 1.529331 0.026213 -0.833139 -0.166915 0.000000 0.000000 0.000000 1.564240 -1.235496 -1.781628 1.559115 0.218418 -0.582694 1.361589 0.833382 0.862276 0.000000 0.000000 0.000000 
-2259.411133 876.618774 1139.661011 12.819510 0.605152 0.546814 -0.379095 1.735228 0.262475 -0.389493 -0.356982 -0.054170 -0.375098 0.348692 0.071132 -0.350213 1.576037 1.582679 0.000000 0.000000 0.000000 4.795487 -0.902800 -1.219248 0.069515 -0.025850 -0.232741 0.087009 -2.344992 -2.199333 0.000000 0.000000 0.000000 -0.962304 -1.509755 -1.720283 -0.095600 -1.920242 0.943938 -0.587353 -2.435042 -2.649608 0.000000 0.000000 0.000000 -0.201456 -3.871945 -0.602894 -0.056457 3.885858 1.535372 0.021271 -0.817223 -0.165737 0.000000 0.000000 0.000000 1.566083 -1.227548 -1.748055 1.561175 0.218048 -0.600608 1.361171 0.830331 0.861271 0.000000 0.000000 0.000000 
-2259.634766 876.386169 1139.608032 12.826171 0.583752 0.528543 -0.391845 1.680677 0.221290 -0.400501 -0.349518 -0.046101 -0.387034 0.343621 0.066961 -0.384587 1.534138 1.693792 0.000000 0.000000 0.000000 4.812388 -0.887803 -1.181553 0.069331 -0.002368 -0.218804 0.086743 -2.332981 -2.191979 0.000000 0.000000 0.000000 -0.941855 -1.455265 -1.745104 -0.091021 -1.874548 0.946964 -0.580539 -2.417675 -2.607645 0.000000 0.000000 0.000000 -0.208518 -3.867078 -0.576787 -0.063159 3.891478 1.544486 0.015932 -0.800748 -0.164619 0.000000 0.000000 0.000000 1.567218 -1.222581 -1.713084 1.562455 0.222724 -0.611467 1.360821 0.827748 0.860422 0.000000 0.000000 0.000000 
-2259.836670 876.173340 1139.557983 12.836270 0.562391 0.504575 -0.404774 1.617268 0.184117 -0.412021 -0.339309 -0.040016 -0.399357 0.336770 0.063309 -0.420239 1.518022 1.814335 0.000000 0.000000 0.000000 4.835863 -0.866461 -1.147091 0.068831 0.027730 -0.201885 0.087190 -2.335375 -2.186770 0.000000 0.000000 0.000000 -0.913466 -1.396791 -1.770510 -0.087064 -1.825357 0.944344 -0.572120 -2.399182 -2.550208 0.000000 0.000000 0.000000 -0.216558 -3.856698 -0.548137 -0.071242 3.889232 1.559490 0.009821 -0.783006 -0.163577 0.000000 0.000000 0.000000 1.569267 -1.220982 -1.678208 1.564526 0.235266 -0.611156 1.362492 0.823962 0.860206 0.000000 0.000000 0.000000 
-2260.023438 875.970337 1139.501953 12.848121 0.541945 0.476088 -0.417827 1.548316 0.148083 -0.423753 -0.327276 -0.034876 -0.411744 0.329473 0.061230 -0.457118 1.517907 1.942077 0.000000 0.000000 0.000000 4.864159 -0.842658 -1.115794 0.068249 0.060306 -0.182729 0.088117 -2.346923 -2.182283 0.000000 0.000000 0.000000 -0.878681 -1.336060 -1.794677 -0.083398 -1.774408 0.939525 -0.562836 -2.380076 -2.484088 0.000000 0.000000 0.000000 -0.224961 -3.844241 -0.516438 -0.079841 3.882985 1.577686 0.003516 -0.764815 -0.162525 0.000000 0.000000 0.000000 1.570634 -1.222335 -1.642020 1.565848 0.252464 -0.604161 1.364220 0.820754 0.860171 0.000000 0.000000 0.000000 
